<svg width="523" height="521" viewBox="0 0 523 521" fill="none" xmlns="http://www.w3.org/2000/svg">
<g filter="url(#filter0_d)">
<path fill-rule="evenodd" clip-rule="evenodd" d="M17.4692 238.417C40.7947 171.367 190.922 47.9741 275.917 14.4331C360.912 -19.1078 507.774 206.326 507.774 259.349C507.774 312.372 294.138 501.399 245.382 501.399C196.627 501.399 -5.85638 305.466 17.4692 238.417V238.417Z" fill="url(#paint0_linear)"/>
<path fill-rule="evenodd" clip-rule="evenodd" d="M17.4692 238.417C40.7947 171.367 190.922 47.9741 275.917 14.4331C360.912 -19.1078 507.774 206.326 507.774 259.349C507.774 312.372 294.138 501.399 245.382 501.399C196.627 501.399 -5.85638 305.466 17.4692 238.417V238.417Z" fill="url(#paint1_linear)"/>
<path fill-rule="evenodd" clip-rule="evenodd" d="M17.4692 238.417C40.7947 171.367 190.922 47.9741 275.917 14.4331C360.912 -19.1078 507.774 206.326 507.774 259.349C507.774 312.372 294.138 501.399 245.382 501.399C196.627 501.399 -5.85638 305.466 17.4692 238.417V238.417Z" fill="#47E6B1"/>
</g>
<defs>
<filter id="filter0_d" x="0.606079" y="0.0473633" width="522.168" height="520.352" filterUnits="userSpaceOnUse" color-interpolation-filters="sRGB">
<feFlood flood-opacity="0" result="BackgroundImageFix"/>
<feColorMatrix in="SourceAlpha" type="matrix" values="0 0 0 0 0 0 0 0 0 0 0 0 0 0 0 0 0 0 127 0"/>
<feOffset dy="4"/>
<feGaussianBlur stdDeviation="7.5"/>
<feColorMatrix type="matrix" values="0 0 0 0 0.278431 0 0 0 0 0.901961 0 0 0 0 0.694118 0 0 0 1 0"/>
<feBlend mode="normal" in2="BackgroundImageFix" result="effect1_dropShadow"/>
<feBlend mode="normal" in="SourceGraphic" in2="effect1_dropShadow" result="shape"/>
</filter>
<linearGradient id="paint0_linear" x1="150.297" y1="159.784" x2="340.112" y2="378.805" gradientUnits="userSpaceOnUse">
<stop stop-color="#E64747"/>
<stop offset="1" stop-color="#E69347" stop-opacity="0"/>
</linearGradient>
<linearGradient id="paint1_linear" x1="189.624" y1="-163.285" x2="411.345" y2="347.909" gradientUnits="userSpaceOnUse">
<stop stop-color="#9847E6"/>
<stop offset="1" stop-color="#E6476D" stop-opacity="0"/>
</linearGradient>
</defs>
</svg>
